<svg width="42" height="42" viewBox="0 0 42 42" fill="none" xmlns="http://www.w3.org/2000/svg">
<g clip-path="url(#clip0_1_43)">
<path d="M35.875 10.5C31.3075 11.725 25.9525 12.25 21 12.25C16.0475 12.25 10.6925 11.725 6.125 10.5L5.25 14C8.505 14.875 12.25 15.4525 15.75 15.75V38.5H19.25V28H22.75V38.5H26.25V15.75C29.75 15.4525 33.495 14.875 36.75 14L35.875 10.5ZM21 10.5C22.925 10.5 24.5 8.925 24.5 7C24.5 5.075 22.925 3.5 21 3.5C19.075 3.5 17.5 5.075 17.5 7C17.5 8.925 19.075 10.5 21 10.5Z" fill="black"/>
</g>
<defs>
<clipPath id="clip0_1_43">
<rect width="42" height="42" fill="white"/>
</clipPath>
</defs>
</svg>
