<svg width="38" height="32" viewBox="0 0 38 32" fill="none" xmlns="http://www.w3.org/2000/svg">
<path d="M29.3636 24.1818V19H24.1818V15.5455H29.3636V10.3636H32.8182V15.5455H38V19H32.8182V24.1818H29.3636ZM17.2727 31.0909L11.7886 26.1682C9.71591 24.297 7.93855 22.6273 6.45655 21.1591C4.97339 19.6909 3.74991 18.3091 2.78609 17.0136C1.82112 15.7182 1.11582 14.4659 0.670182 13.2568C0.223394 12.0477 0 10.7811 0 9.45682C0 6.75076 0.906818 4.49782 2.72045 2.698C4.53409 0.899333 6.79394 0 9.5 0C10.997 0 12.422 0.309182 13.775 0.927545C15.128 1.54706 16.2939 2.43258 17.2727 3.58409C18.2515 2.43258 19.4174 1.54706 20.7705 0.927545C22.1235 0.309182 23.5485 0 25.0455 0C27.4924 0 29.5433 0.741 31.198 2.223C32.8539 3.70615 33.8833 5.44091 34.2864 7.42727C33.7682 7.22576 33.25 7.07433 32.7318 6.973C32.2136 6.87282 31.7099 6.82273 31.2205 6.82273C28.3129 6.82273 25.8371 7.83721 23.7932 9.86618C21.7492 11.8963 20.7273 14.3652 20.7273 17.2727C20.7273 18.7697 21.0295 20.1872 21.6341 21.5253C22.2386 22.8645 23.0879 24.0091 24.1818 24.9591C23.6348 25.4485 22.9221 26.0749 22.0435 26.8384C21.166 27.6007 20.4106 28.2697 19.7773 28.8455L17.2727 31.0909Z" fill="black"/>
</svg>
